<svg id="Layer_1" data-name="Layer 1" xmlns="http://www.w3.org/2000/svg" viewBox="0 0 179.99 239.09"><defs><style>.cls-1{fill:#080808;}.cls-2{fill:#b1b1b1;}</style></defs><path class="cls-1" d="M163.92,72.9c0,18.79-14.26,29-34.64,35.55,26.26,5.66,46.64,18.11,46.64,41.2,0,31.25-36.68,47.1-86,47.1s-86-15.85-86-47.1c0-23.09,20.38-35.54,46.87-41.2C30.34,101.88,16.08,91.69,16.08,72.9c0-28.07,31.69-43.47,73.8-43.47C132.22,29.43,163.92,44.83,163.92,72.9ZM25.81,148.07c0,20.6,26,31,64.07,31,38.27,0,64.31-10.42,64.31-31,0-19.93-26-30.34-64.31-30.34C51.85,117.73,25.81,128.14,25.81,148.07Zm116.6-74.49c0-17.21-21-26.26-52.53-26.26-31.24,0-52.52,9-52.52,26.26,0,17.66,21.28,26.49,52.52,26.49C121.36,100.07,142.41,91.24,142.41,73.58Z"/><path class="cls-2" d="M163.92,72.9c0,18.79-14.26,29-34.64,35.55,26.26,5.66,46.64,18.11,46.64,41.2,0,31.25-36.68,47.1-86,47.1s-86-15.85-86-47.1c0-23.09,20.38-35.54,46.87-41.2C30.34,101.88,16.08,91.69,16.08,72.9c0-28.07,31.69-43.47,73.8-43.47C132.22,29.43,163.92,44.83,163.92,72.9ZM25.81,148.07c0,20.6,26,31,64.07,31,38.27,0,64.31-10.42,64.31-31,0-19.93-26-30.34-64.31-30.34C51.85,117.73,25.81,128.14,25.81,148.07Zm116.6-74.49c0-17.21-21-26.26-52.53-26.26-31.24,0-52.52,9-52.52,26.26,0,17.66,21.28,26.49,52.52,26.49C121.36,100.07,142.41,91.24,142.41,73.58Z"/></svg>