<svg id="Layer_1" data-name="Layer 1" xmlns="http://www.w3.org/2000/svg" viewBox="0 0 250 301.88"><defs><style>.cls-1{fill:#080808;}.cls-2{fill:#020202;}.cls-3{fill:#b1b1b1;}</style></defs><rect class="cls-1" y="17.2" width="250" height="250"/><path class="cls-1" d="M217.65,92.05c0,23.73-18,36.59-43.74,44.88,33.16,7.15,58.89,22.87,58.89,52,0,39.45-46.31,59.46-108.63,59.46S15.54,228.41,15.54,189c0-29.16,25.73-44.88,59.17-52C49,128.64,31,115.78,31,92.05c0-35.45,40-54.89,93.19-54.89C177.63,37.16,217.65,56.6,217.65,92.05ZM43.27,187c0,26,32.87,39.16,80.9,39.16,48.31,0,81.19-13.15,81.19-39.16,0-25.16-32.88-38.31-81.19-38.31C76.14,148.65,43.27,161.8,43.27,187ZM190.49,92.91c0-21.73-26.58-33.16-66.32-33.16-39.45,0-66.32,11.43-66.32,33.16,0,22.3,26.87,33.44,66.32,33.44C163.91,126.35,190.49,115.21,190.49,92.91Z"/><rect class="cls-2" y="17.2" width="250" height="250"/><path class="cls-3" d="M217.65,92.05c0,23.73-18,36.59-43.74,44.88,33.16,7.15,58.89,22.87,58.89,52,0,39.45-46.31,59.46-108.63,59.46S15.54,228.41,15.54,189c0-29.16,25.73-44.88,59.17-52C49,128.64,31,115.78,31,92.05c0-35.45,40-54.89,93.19-54.89C177.63,37.16,217.65,56.6,217.65,92.05ZM43.27,187c0,26,32.87,39.16,80.9,39.16,48.31,0,81.19-13.15,81.19-39.16,0-25.16-32.88-38.31-81.19-38.31C76.14,148.65,43.27,161.8,43.27,187ZM190.49,92.91c0-21.73-26.58-33.16-66.32-33.16-39.45,0-66.32,11.43-66.32,33.16,0,22.3,26.87,33.44,66.32,33.44C163.91,126.35,190.49,115.21,190.49,92.91Z"/></svg>